<svg id="svg2994" xmlns="http://www.w3.org/2000/svg" viewBox="0 0 727.48 632.94"><defs><style>.cls-1{fill:#050505;}</style></defs><title>纹章2（小）new</title><g id="layer1-4"><path id="path18706" d="M231.81,867.84a193,193,0,0,0-33.36,3.29c-10.8,2-26.33,4.69-34.52,6l-14.87,2.37,8.81,2.3c4.85,1.26,18,4.87,29.1,8,35.1,9.94,73,7.06,90-6.84l6.5-5.33-5.2-2.24c-12.2-5.19-28.6-7.73-46.5-7.56Zm280.1-.39c-13.55,0-40,5.14-47.87,9.28-3.79,2,9.48,10.4,24,15.26,7.88,2.64,16.4,3.7,30,3.75,16.62.06,22.75-.95,48.16-8,25.9-7.14,28.37-8.16,22.46-9.34C557.27,872.17,524.4,867.45,511.9,867.45Zm148.75-57.16c-5.65-.07-17.64.64-39.71,2.37-27.43,2.14-46.2,7.46-62.82,17.76-15,9.31-18.6,13.16-14.87,16.05,1.58,1.22,6.84,3,11.7,3.88,17.87,3.28,33.32,1.26,56-7.24,9.74-3.64,51.47-28.34,53.8-31.84.41-.62-.73-.95-4.12-1Zm-579.11-.72a7.09,7.09,0,0,0-2.6.33c-.34.23,9.52,7,21.88,14.93,22.33,14.41,28.38,17.19,51.7,23.94,13.94,4,34.92,3.53,47-1.18l7.29-2.83-7.94-6.51c-4.35-3.56-13.84-9.14-21.08-12.43s-14.56-6.67-16.32-7.5c-5.8-2.73-66.35-9.11-79.93-8.75Zm631.1-83.21a39.82,39.82,0,0,0-8.3,1.91c-4.88,1.5-13.86,3.63-19.93,4.8-16.39,3.16-43.71,16.68-57,28.15-9.65,8.31-22,23.74-22,27.5,0,.53,2.5,1.33,5.56,1.78,10.46,1.51,33.94-3.62,43.33-9.47,24.89-15.54,31.4-21.21,43.25-37.63,3.84-5.31,9.35-11.1,12.28-12.89,4.63-2.83,5.47-4.26,2.89-4.14ZM120.53,597.22c-3.4.06-25.82,34.48-29.82,46.57-5.34,16.13-5.24,33.3.22,46.9,4.18,10.43,4.3,10.55,8.3,7.17,5-4.18,11-15.09,15-26.84,2.33-6.88,6.4-51,6.72-73,0-.52-.14-.79-.43-.79Zm6.5-69c-.94.35-8.71,7-18.12,15.39-19.71,17.61-26,26.95-31.56,47.56-2.23,8.23-2.87,15.36-1.95,22.23.74,5.56,2.07,10.13,2.89,10.13,1.82,0,20.4-23.08,26-32.3,3.64-6,9.78-22.36,19.64-52.23,1.78-5.4,3.25-10.19,3.25-10.72,0,0-.08-.09-.14-.07Zm574.92-71-8.81,12.76c-4.87,7-11.85,18.24-15.45,25-6.14,11.52-6.51,13.56-6.5,32.17,0,12.61,1,21.37,2.6,24.08,1.42,2.34,3.16,4.28,3.83,4.28,4,0,14.6-8.43,18.2-14.54,8.77-14.89,10.93-32.94,7.87-65.32Zm-47.59-70.39c-1.09-.09-3.76,4.63-7.08,12.63-5.59,13.5-6.24,17.42-6.35,36-.12,19.35.23,21.51,5.63,31.18,3.2,5.72,6.8,11.55,8,13,1.81,2.09,2.9,1.81,5.78-1.51,5.24-6,11.81-23.85,11.77-31.84,0-8.95-8.53-37.69-17.4-59-.09-.21-.2-.38-.36-.39ZM157.22,330.27l-13,14.74c-7.15,8.09-15.33,19.11-18.2,24.47-5.79,10.84-7.61,26.68-4.55,39.86,1,4.42,2.78,8,3.9,8s6.88-4.41,12.78-9.87c16.48-15.25,23.61-37.79,20.51-64.86l-1.44-12.37Zm429.5-.79.72,24.54c.64,22,1.34,25.76,6.28,35.65a69.85,69.85,0,0,0,15.16,19.41c5.3,4.57,10.26,8.28,11,8.29,3.12,0,6-16.54,4.91-27.89-1.68-17.06-7.78-27.54-30.33-51.7l-7.8-8.29ZM434.35,291a.6.6,0,0,0-.36.13c-1.45,1.35,21.37,27.37,28.88,33a71.35,71.35,0,0,0,17,8.88,66,66,0,0,0,15.45,3c7.38,4.72,17.23,10.92,29.32,18.42A90.3,90.3,0,0,0,496,352c-12.56,1.2-41.85,9.11-45.27,12.24-.89.81,5.92,2.11,15.16,2.89s22.34,2.18,29,3c13.08,1.66,42.3,1,48.09-1.12a8.61,8.61,0,0,0,2.6-1.32A297.66,297.66,0,0,1,573.06,389c-12.5-5.2-27.33-7.53-46.14-7.5-21.08,0-26.22,1.87-15.31,5.53,4.17,1.39,16.28,6.4,26.86,11.12s24.72,9.58,31.41,10.85a164.88,164.88,0,0,0,23.18,2.5l3,.07c2.35,2.58,4.62,5.23,6.86,7.89A266.4,266.4,0,0,1,619.64,441a102.75,102.75,0,0,0-23.83-13.09C581,422.1,555.48,416,553.57,417.83c-.38.35,5.85,5.48,13.86,11.45S587,444,593.14,448.68c11.18,8.57,32.5,20.51,39.71,22.23a40.78,40.78,0,0,0,5.34,1A275.76,275.76,0,0,1,654,509.07a99.37,99.37,0,0,0-9.1-10c-10.17-10.06-17.37-15-33.36-22.76-11.22-5.48-20.44-9.23-20.43-8.35s3,4.48,6.72,8.09c7.37,7.22,17.64,21.07,23.61,31.84,4.37,7.88,21.49,23.84,33.5,31.25,4,2.49,6.7,3.93,8.38,4.41a274.09,274.09,0,0,1,5.42,53.81,101.36,101.36,0,0,0-5.63-20.52c-4.67-11.58-7.74-15.58-20.72-27.37-8.38-7.61-17.52-16-20.29-18.62l-5-4.74,1.44,4.74c14.64,46.83,23.5,65.35,39.93,83.54,6.27,6.94,8,8.65,9.17,7.17-.49,5.43-1.12,10.85-1.95,16.25a254.82,254.82,0,0,1-6.93,32.43,75.65,75.65,0,0,0-4.55-28.75c-3.77-9.67-28.23-47.42-29.75-45.92-1.36,1.35,3.27,62.84,5.34,70.85,2.63,10.18,10.56,26.24,15.45,31.31a39.14,39.14,0,0,0,3,2.83,279.43,279.43,0,0,1-23.9,45.19,104.27,104.27,0,0,0,1.23-43.48c-5.27-27.78-14.14-46.47-14.23-29.93,0,2.8-2.78,15.28-6.14,27.76-9.56,35.52-9.94,48.21-1.73,67.56l1.81,4.08a293,293,0,0,1-27.94,29.54c.14-.25.24-.55.36-.79,5.11-10.15,8-34.63,6.28-53.74l-1.37-15.92-9,15.52c-4.89,8.54-10.91,18.21-13.43,21.51-10.72,14-14.16,24.14-15.24,44.53l-.87,15.13c-3.3,2.25-6.64,4.46-10,6.58A280.17,280.17,0,0,1,507.72,849c11.81-13,20.92-32.15,24.48-53.15l1.66-9.74-12.42,10.79c-38.54,33.61-48.87,46.42-51.27,63.09a37.54,37.54,0,0,0-.51,4.54,308.45,308.45,0,0,1-41.23,10.59,44.46,44.46,0,0,0,5.05-2.43c12.3-6.73,32-30.18,35.17-41.77l1.3-4.8-10,4.47A238.5,238.5,0,0,1,437,839c-7.14,2.19-16.34,6.11-20.51,8.68-9.44,5.83-24,22.61-24,27.76,0,3,.78,3.67,9.31,3.35a315.68,315.68,0,0,1-62.39-.13h1l13.65.2-3.1-7c-7.39-16.5-19.15-25.28-44.77-33.42a223.93,223.93,0,0,1-22.75-8.55l-8.81-4.21,1.37,4.41c4.49,14,27.59,39.08,41.16,45.52-7.09-1.25-14.11-2.72-21.08-4.47-7.25-1.74-14.46-3.76-21.52-6.05a17.52,17.52,0,0,0,0-5.66c-1.75-14.51-7.51-22.3-35.67-48.28l-27.29-25.13,1.3,8.16c.69,4.49,3.55,15,6.35,23.42,4.6,13.8,11.38,25,20.29,33.55a298.37,298.37,0,0,1-39.71-22.76l1-3.95c3.88-14.76-4-40.92-18.2-60.26-2.92-4-8.64-13.24-12.71-20.52l-7.37-13.22L162,755c-.36,13.77.37,28.92,1.66,34.47s4.58,11.91,9,18a295.43,295.43,0,0,1-35.53-36.38c1.11.72,1.92,1.08,2.31.86,3.49-2,8-20.67,7.94-33,0-7.78-2.66-22.29-7.08-38.88-3.88-14.56-7.12-29-7.22-32.17-.18-5.6-.27-5.57-4.12,2.24-4.57,9.27-12,41.32-12,51.84,0,4,1.55,13.75,3.39,21.58a83.45,83.45,0,0,0,2.46,8.68,274.08,274.08,0,0,1-22.1-38.09C74.28,660,67.89,597.69,80.53,539.26c0,6.07.51,6.05,10.83-.66,13-8.42,26.15-22.1,39.57-40.85,6.7-9.36,15-20.18,18.56-24.08s5.94-7.1,5.34-7.1c-4,0-39.47,18.92-46.79,24.93-9.85,8.09-17.37,17.21-22,26.51a269.75,269.75,0,0,1,18.63-45.92,6.16,6.16,0,0,0,1.59.13c9.45,0,42.61-18.67,59.57-33.48,4-3.46,12-9.68,17.91-13.81,12-8.39,10.54-9.1-9.6-4.67-21.8,4.8-41.42,14.48-54.59,26.18a270.75,270.75,0,0,1,27.15-34.73h5.13c16.79-.05,35.6-4.56,53.36-12.76,8.91-4.12,20.64-9.05,26-10.92,13-4.55,9.06-6.48-13.21-6.51-22,0-37.11,2.6-50.11,9.41a301.59,301.59,0,0,1,30.54-23.81,2,2,0,0,0,.43.53c.7.66,4.69,1.81,8.88,2.57,12.27,2.22,26.4,1.92,50.18-1.05,12.26-1.53,25.64-2.82,29.82-2.83s7.65-.62,7.65-1.45-8-4-17.76-7c-22.35-7-46.33-7.7-62.53-2,12.24-8.4,21.83-15,29-20.13a12.68,12.68,0,0,0,4.19.33c15.07,0,26.94-5.52,42.1-19.67,15.78-14.73,25-27.52,17.91-24.8-2.06.79-10.11,2.92-17.91,4.8-31.83,7.66-42.28,15.23-46.5,33.55,0,.09-.05.11-.07.2-12.25,7-27.42,16.16-36.9,22,.4-.36.78-.76,1.16-1.12,11.74-11.13,17.45-21.15,22.53-39.6l3.61-13.09-4.33,2.11c-2.39,1.18-9.74,5.52-16.32,9.67-25.66,16.18-39,36.66-34.52,53.15.73,2.71,1.76,4.93,2.24,4.93a8.79,8.79,0,0,0,3-.79,296.41,296.41,0,0,0-83.83,95.84,75.25,75.25,0,0,0,5.27-27.3c0-11.42-1.46-18.6-6.86-33.88l-6.86-19.34-5.7,15.85c-15.51,42.77-16.08,56.28-3,77l4.19,6.58,4.48-4.93a36,36,0,0,0,3.47-4.41A280,280,0,0,0,75.91,523.8a49.58,49.58,0,0,0-1.44-10.26C71.54,502,63.54,484.17,59.37,479.86c-1.54-1.6-5.95-7.72-9.75-13.62-6.72-10.43-6.88-10.57-6.93-4.74,0,3.3-.79,15.45-1.66,27-2.55,33.82,4,54.21,20.15,63.41,4.54,2.58,6.71,3.69,8.16,2.89a279.32,279.32,0,0,0-3.25,42.3c0,1.65,0,3.29.07,4.93-5-12.62-25.42-40.93-33.65-46.24-2.72-1.76-8.25-5.69-12.28-8.81-5.61-4.35-7-4.86-5.85-2.11.8,2,2.8,11.32,4.48,20.79,6,33.66,16.42,52.88,34.95,64.27,6.1,3.75,12.35,6.84,13.86,6.84a1.44,1.44,0,0,0,1.16-.66,277.76,277.76,0,0,0,10.83,46.84c-6.45-9.57-14.43-18-22-22.3-3.91-2.21-12.48-7.49-19-11.71S22.6,639,17.35,636.16L7.74,631l12.13,22.76C26.52,666.3,35.1,681,39,686.55c8.67,12.19,23.24,22.81,37.77,27.63,12.26,4.06,15.49,4.94,15.67,1.18A287.6,287.6,0,0,0,122.12,765a102.66,102.66,0,0,0-13.07-11.12c-12.75-8.62-35.44-18.26-48.52-20.66a151.08,151.08,0,0,1-19-4.8c-10.75-3.83-11.2-3.51-4.33,3.42,3.35,3.38,10.09,11.17,15,17.3,9.16,11.38,30,28.17,42.24,34.08,3.75,1.81,12.45,4.44,19.28,5.85s14.23,2.22,16.46,1.78a49.22,49.22,0,0,1,7.65-.86c3,0,3.29-.42,1.3-4.14,48,53.57,116,90.35,192.94,99.79a145.17,145.17,0,0,0-21.59,5.46c-10.62,3.75-69.9,30.7-69.9,31.77s39.3-.78,51.85-2.5c17.8-2.44,41.11-9.69,50.62-15.72a85.73,85.73,0,0,0,14.08-12.1l4.26-4.67c3.33.1,6.68.2,10,.2q5.58,0,11.12-.2L393.12,897c11.46,10,15.26,12.05,30.11,16.31,24.82,7.12,26.82,7.48,53.43,8.95,13.37.74,25.47,1.48,26.86,1.64s2.53-.09,2.53-.59c0-1.23-18-9.59-24.33-11.31-2.79-.76-8.3-3.48-12.28-6-13.5-8.51-38.17-16.7-58-20.46,111.25-13.9,203.7-84.9,243.85-181.1-2,5.31-3.39,9.62-3.39,10.72,0,3.77,2.94,3.7,15.52-.59,14.45-4.93,28-14.14,36.25-24.54,7-8.88,33.55-57,31.41-57-1.34,0-27.09,14.89-42.89,24.8-16.68,10.46-26.07,21-33.14,37.3a277.73,277.73,0,0,0,15.45-61.84c.67,5.46,4.35,3.83,16-2.63,18.43-10.26,30-30.58,35.53-62.23,1.57-9,3.74-18.62,4.84-21.31s1.27-4.87.36-4.87c-2.94,0-33.45,29-40.58,38.61a75.15,75.15,0,0,0-14.15,31c.26-4.89.36-9.79.36-14.74,0-94.82-47.7-179.08-121.45-232.21,3.72,1.74,7.42,2.9,8.45,2.63,2.94-.77,3.69-14.26,1.23-22-3.24-10.14-20.84-28.14-37.19-38-8.08-4.88-15-8.61-15.38-8.29-1.15,1,5.58,23.75,9.46,31.9,3.34,7,13.56,18.56,22.6,26.31-5.33-3.5-10.83-6.89-16.39-10.06-5.48-2.41-16.05-7.8-26.5-13.16a4.87,4.87,0,0,0,.36-2c0-13.34-15-27.41-34.73-32.63-7.09-1.87-17.33-4.75-22.75-6.32-4.74-1.37-9-2.32-10.18-2.3Z" transform="translate(-7.74 -291)"/></g><g id="layer4"><path id="path2995" class="cls-1" d="M426.52,850c11.35-1.9,20.22-8.51,23.92-17.82,4.6-11.59-.89-29.29-11.38-36.68-3.25-2.29-3.29-2.45-1.95-7.81,1.73-6.92,1.35-11.27-1.63-18.52a37.65,37.65,0,0,0-17.85-19c-6.27-3.23-8.28-3.68-17.91-4-12.6-.46-17.61,1.27-25.51,8.78-4,3.8-5.32,4.41-7.36,3.4-1.36-.68-14.24-11.94-28.61-25s-32.7-29.72-40.73-37S270.81,672,256,658.53,222.43,628,214.25,620.79s-16-15-17.45-17.26c-3.05-4.84-8.17-6.59-15-5.15-11.22,2.36-10.12,18.34,1.46,21.34,1.81.47,3.32,1.27,3.37,1.79s1.65,2.53,3.56,4.47l3.48,3.54-10.35,9c-19.81,17.32-32.16,29-32.05,30.31s16.79,16.24,18.38,16.3c.55,0,3.38-1.79,6.3-4,5.85-4.49,6.37-7.27,2.09-11.21-2.58-2.38-2.65-2.72-.87-4.07s2.15-1.19,3.32.51a12.86,12.86,0,0,0,4.13,3.37c2.36,1.18,3.4.78,7.34-2.82,2.52-2.31,4.55-4.63,4.5-5.16s-1.5-2.58-3.23-4.54c-2.67-3-2.87-3.72-1.36-4.55,1.26-.69,2.86-.07,5.47,2.12l3.69,3.1,3.57-2.29c2.93-1.88,3.85-2,5.12-.69s1,2.07-.82,3.58c-3.09,2.59-2.88,3.73,1.34,7.56,3.13,2.84,3.31,3.33,1.63,4.6s-2.38,1-5-1.16c-4.27-3.52-6.3-3.35-10.69.92s-4.5,5.91-.66,9.44c2.52,2.33,2.62,2.74.95,4s-2.37,1-5-1.16c-1.72-1.42-4-2.62-5-2.65-2.08-.08-11.84,8.74-11.68,10.55s17.12,16.08,19.1,16.15c1,0,11.19-8.38,22.74-18.71l21-18.77,14.27,12.91,31.55,28.5c68.54,61.86,70.93,64.24,66.52,66.39-8.81,4.31-14.08,13.48-13.93,24.24.27,19,16.69,34.34,37.64,35.13,4.56.17,9.64-.11,11.29-.63,2.56-.81,3.68-.32,7.67,3.35,8.35,7.67,23.63,12.55,33.91,10.83Zm-16.76-7a28.56,28.56,0,0,1-12.12-7.15c-3-2.85-5.85-5.91-6.26-6.82-.62-1.38-1.51-1.37-5.58.1-7.86,2.83-12.48,3-19.85.86-13.47-4-22.94-14.36-24-26.3-.9-10.42,3.7-17.39,15.62-23.63,2-1.07,2-1.55-.11-6.49-2.35-5.41-10-12.69-69.94-66.72-9.89-8.91-31-28.06-47-42.55l-38.32-34.83L192.93,621l3.37-3,3.37-3,41.26,37.51C345.82,747.84,363.6,763.7,365.75,763.78c2,1.31,2.67,1.31,3.16,1.27a7.33,7.33,0,0,0,5.35-.21c.08-2.58,10.09-10.85,14.48-12.45,5.5-2,17.4-1.55,23.25.87,15.1,6.26,23.58,22.94,18.17,35.72l-2.08,4.9,6.76,5.76c15.26,13,15.42,30.56.37,41-6.88,4.77-14.92,5.52-25.44,2.38Zm21-3.52c14.9-6.5,16.35-25.92,2.79-37.17a25.6,25.6,0,0,0-8-4.56c-4.51-1.1-5-4.54-1.05-6.87,1.89-1.11,3.24-3.61,3.9-7.25,3.44-19-20.63-36.08-39.22-27.87a28.67,28.67,0,0,0-8.92,6.67c-2.92,3.55-3.4,5.21-2.81,9.66,1.36,10.22,1.08,10.56-8.36,10.21s-13.67,1.09-18.74,6.61c-10.21,11.1-4.73,29.38,10.89,36.28,10.53,4.65,24.24,4.11,25.62-1,.89-3.32,6-2.15,6.87,1.57,2.79,11.82,23.69,19.57,37.06,13.74Zm-20.91-5.38c-4.7-2.23-6.7-4.09-9.68-9-2.07-3.43-4.64-6.75-5.73-7.38-3.86-2.24-8.84-1.5-12.53,1.87-6.72,6.14-20.42,2.94-26.93-6.3-5.8-8.23-4.73-16.76,2.85-22.62,3.12-2.41,5-2.83,11.59-2.59,12.2.43,13.23,0,14.2-6.42a25,25,0,0,0-.17-8.87c-.77-2.52-.26-4.17,2.12-6.9,8.49-9.69,23.35-8.55,33.11,2.54,2.11,2.39,3.05,5,3.45,9.67.5,5.81.21,6.62-3.3,9.12-2.7,1.92-3.77,3.71-3.58,6,.33,3.81,5.2,9.46,8.25,9.57,2.85.11,9.42,5.55,11.41,9.45,5.1,10,.54,20.16-10.5,23.39C417.93,837.44,416.63,837.31,409.82,834.08ZM187.47,695.25c-5.14-4.58-5.14-4.58-2.73-6.61s2.5-2,5.58.58c1.74,1.43,4,2.64,4.94,2.67,2,.08,10.78-7.53,10.63-9.24-.05-.62-1.46-2.39-3.12-3.92-2.31-2.13-2.7-3.09-1.64-4.08s2.13-.68,4.57,1.34c1.75,1.45,4,2.66,5,2.7,1.76.07,10.78-7.42,10.66-8.85,0-.41-1.64-2.3-3.57-4.21-3.5-3.46-3.5-3.48-1.09-5.29,3.39-2.55,2.88-4.16-3-9.36s-7.19-5.53-10.16-2.42l-2.13,2.24-3.61-3c-2-1.67-4.13-3.05-4.76-3.07-1.58-.06-10.12,7.86-10,9.26.05.62,1.41,2.34,3,3.82,3,2.76,2.82,5.15-.37,5a5.37,5.37,0,0,1-3.36-2.42,5.58,5.58,0,0,0-3.7-2.44c-2.3-.09-11.15,7.35-11,9.24.05.63,1.6,2.52,3.44,4.2l3.35,3.06-2.74,1.84c-2.66,1.78-2.89,1.71-7.8-2.67l-5.06-4.51,12.13-11c6.67-6.06,15.64-14.09,19.92-17.84l7.79-6.82L204,638.5c3,2.8,10.66,9.89,17.12,15.75l11.75,10.67-19.46,17.45c-10.7,9.6-19.77,17.45-20.15,17.46s-3-2.05-5.84-4.57Zm-5.69-81.65c-.55-.29-1.15-2.29-1.34-4.45-.36-4.15,2-6.22,7-6s7.46,7.1,4.05,10.67c-1.75,1.84-6,1.76-9.7-.19Z" transform="translate(-7.74 -291)"/></g><g id="layer3"><path id="path4514" d="M498.88,382.19a116.66,116.66,0,0,1-8.92,9.95l-5.31,5.22,8.86-3.7c15.15-6.33,21.19-5.26,19.95,3.54-.76,5.41-6.89,11.66-22.42,22.88l-11.56,8.35L496,424.08c18-4.73,20.49-4.86,22.17-1.14,2,4.37-7.59,15.39-15.59,18-7.46,2.41-4.38,5.27,5.83,5.4,14.68.19,17.17,6.94,4.77,13-4.86,2.36-5.48,3.13-3,3.76a13.42,13.42,0,0,1,5.47,3.45c3.91,4.3.39,8.43-10.07,11.81l-9.12,2.95,5.22,2.79c8.5,4.54,7.07,7.61-5.43,11.65l-10.61,3.43,5.64,2.1c7.15,2.66,8.53,5.69,4.24,9.33l-3.37,2.86,7.77,2.66c9.49,3.25,11.81,7.42,6.88,12.38l-3.62,3.64,14.43,5.49c16.86,6.41,20.55,10.76,13.54,16l-4.21,3.13,7,3.07c7.94,3.49,12.84,11.22,9,14.14-4.54,3.41-14.8,5.59-25.45,5.41-7.91-.14-11.53.44-13.21,2.12-3.42,3.42-24.5,8.14-34.59,7.74a140.64,140.64,0,0,1-18.13-2.21l-9.36-1.87,4.69,3.66c2.58,2,9.32,5.66,15,8.1,6.73,2.9,10.87,5.73,12,8.2,2.36,5.24,9.76,8.87,46.3,22.71,73,27.65,79.86,31.21,72.87,37.95-1.47,1.42-13.31,6.81-26.3,12-20.68,8.22-24.81,9.44-33.1,9.84-5.21.25-11.21,1-13.33,1.7a27.47,27.47,0,0,1-6.79,1.25c-1.62,0-16-6.8-31.93-15.12-22.46-11.72-30.14-15-34.11-14.47a42.77,42.77,0,0,1-12.21-1c-7.35-1.68-15.31-.3-14.08,2.45.46,1-1.68,2.06-6.21,3L408,666.71l1.87,7.62c1.55,6.32,1.26,7.9-1.68,9.28-2.24,1-3.11,2.63-2.37,4.27,2.38,5.3-2.73,11.89-15.42,19.87-14.68,9.24-27.49,23.09-24.19,26.16,9.31,8.66,11,17.39,4.86,24.89-5.38,6.55-8.63,8-13.72,6.11h0c-4.75-1.76-4.75-1.81-1.12-8.56,3.16-5.86,2.86-7.9-1.94-13.35-2.3-2.62-2.83-2.64-4.2-.18a59.32,59.32,0,0,1-6.39,8c-2.65,2.87-4.43,6.12-3.94,7.2,1.25,2.79-6.63,5-9.21,2.6-1.89-1.77-2.21-1.63-3.25,1.45C325.64,767,322.6,765.16,317,756c-4.37-7.17-4.5-8.07-1.82-12.58,3.54-6,10.88-10.64,22.63-14.45,7.32-2.37,11.07-4.9,20.9-14.1,15.06-14.09,18.3-18.58,16.42-22.75-.82-1.82-.91-3.93-.2-4.7,3.32-3.62-1.45-4.7-15.45-3.49-15.89,1.37-36.71,5.14-37.61,6.8a4.75,4.75,0,0,0,.46,3.18A18.49,18.49,0,0,1,320,713.19c-4.89,5.85-13.07,9.46-17.6,7.77-4.23-1.57-4.77-4.53-1-5.73s7.93-7.8,6.81-10.59a34.36,34.36,0,0,1-.83-7.82c-.12-5.85-.27-6-4.83-6-2.59,0-10.11,1.31-16.71,2.87-11,2.61-12.12,2.58-13.42-.31-1.12-2.5-2.07-2.77-4.52-1.3-3.79,2.27-12.18-.72-12.15-4.33,0-2.66,4.29-4.86,5.26-2.71.65,1.45,8.47-5.19,9.05-7.7.9-3.82,11.69-5.11,24.33-2.91a96.43,96.43,0,0,0,27.83.58c15.83-1.79,35.3-7.23,36-10.05.22-.94-.44-5.58-1.46-10.31s-2.21-10.29-2.64-12.35c-1-4.72-11-10.82-18.58-11.32a16.11,16.11,0,0,1-8.94-3.77c-1.88-1.87-4.54-3.4-5.91-3.4s-4.3-2.7-6.52-6-4.92-5.72-6-5.37-4.74-.27-8.08-1.38-7.23-1.65-8.65-1.2-2.79.36-3.05-.21-7.86,1.2-16.89,3.94c-18.85,5.73-20.6,7.13-23.47,18.73-2,8.21-5.8,12.61-12.71,14.85-4.61,1.49-6.76-1.14-4.12-5,.94-1.39,2.37-6.58,3.19-11.53l1.48-9L230.23,629c-3,4.09-6.08,9.71-6.77,12.5-1.82,7.34-5.39,7.8-8.41,1.1a29.69,29.69,0,0,1-2.46-10c0-6,5.82-26.11,10.64-36.8s18.17-28.72,23.43-31.59a45.53,45.53,0,0,0,7-4.88c1.68-1.5,10.19-5.09,18.9-8s15.65-5.68,15.42-6.19c-.71-1.58-17-5.34-23.83-5.48a134.56,134.56,0,0,0-17.53,1.51c-15,2.23-22.48.9-27.52-4.86-2.75-3.14-7.74-14.11-15.39-33.84-21.09-54.34-23.54-63.65-17.89-67.87,1.88-1.4,3-3.43,2.53-4.51-2.4-5.33,6.26-8.85,10.56-4.3,2.87,3,5.15,2.22,4.91-1.73-.23-3.66,4.58-5.69,8.78-3.71,1.61.76,4.26,4.34,5.89,8,2,4.45,3.16,5.78,3.58,4.11a10.08,10.08,0,0,0-.7-5.45c-1.7-3.87,1-7.68,6.07-8.67,3.57-.7,4.52.08,7.9,6.46l3.84,7.25,1.76-4.67c2.87-7.61,11.37-8.21,14.6-1l1.55,3.45,2.5-4.28c3.72-6.36,7.41-6.85,11.29-1.51,1.82,2.5,3.48,5.92,3.68,7.59.32,2.59,1.21,2.78,5.87,1.28,7.19-2.33,11-.53,11,5.13,0,6.28,1,7.62,5.86,7.8a8.24,8.24,0,0,1,6.55,3.68c1.71,2.77,2.8,3.14,5.15,1.73,3.77-2.26,12,.24,12.39,3.8.28,2.24.7,2.24,2.69,0s3.4-2.26,8.24-.61c3.5,1.19,6,3.1,6.21,4.72s1,2.83,1.89,3,7-5.64,13.67-12.84S369.71,433.4,373.95,430s11.45-9.42,16-13.3,14.39-11.73,21.81-17.47c12-9.27,24.48-19.68,42.76-35.62,3.18-2.78,8-5.53,10.65-6.11,4.1-.89,5.27-.36,7.5,3.43,1.68,2.86,2,5.79.95,8.08-2.11,4.49-1.64,4.33,12.62-4.45,6.43-4,13-7.19,14.7-7.2,4.16,0,6.78,6.64,5.09,12.9M344.25,742.54q-1.2-2.66-5.92,3.86l-2.95,4.08,4.68-3.43c2.57-1.89,4.46-3.92,4.19-4.52Zm18.13-5.35c-4.32-4.09-8-2.33-4.68,2.23,1.44,2,3.46,2.79,5.32,2.19,2.62-.85,2.54-1.41-.65-4.42ZM558,674.59c-1.63-1.52-1.1-1.67,3.66-1,3.06.44-5.86-3.32-19.83-8.36s-31.87-12.67-39.78-17-15.63-7.8-17.17-7.8-3.07-.62-3.41-1.39-3.51-2.72-7-4.34a89.85,89.85,0,0,1-14.69-9.59c-6.67-5.35-8.11-6-7.38-3.22a4.35,4.35,0,0,1-1.81,4.83c-2.08,1.08-3.14.47-4.53-2.63-1.93-4.3,1.78-13.11,5.08-12,1,.33.73-.46-.67-1.77-4.51-4.21-5-6.37-1.64-7.93,2.15-1,4.56-.58,7.1,1.27,3.61,2.62,10.42,3.52,11.5,1.52.27-.5-4.72-3.08-11.08-5.75s-12.65-6-14-7.41a20.47,20.47,0,0,0-7.39-4.12c-4.88-1.53-18.53-1.46-23.4.11-1.36.44-2.71.28-3-.36s-1.68-.79-3.1-.33a10.54,10.54,0,0,1-5.23.07c-1.46-.42-9.38-2.31-17.6-4.19s-15.48-3.66-16.13-3.94c-7.17-3.12-25.06-7.94-25.94-7C339,574,335,570,336.1,567.89c.51-1,3.18-1.69,6.14-1.71,3.44,0,6-.8,7.42-2.29,1.27-1.32,1.3-2,.07-1.63-3.27,1-4.35-3.41-1.15-4.68,1.56-.62,4.86-1.9,7.33-2.84,5.82-2.23,8.75-6.94,3.2-5.15-2.73.88-3.94.49-4.3-1.41s.87-2.94,4.22-3.7c2.59-.59,4.41-1.75,4-2.59s.05-1.41,1-1.27,2-1.11,2.38-2.78c.61-2.53.17-2.84-2.64-1.84-5.24,1.86-6.84-1.46-2.32-4.83,2.23-1.67,4.36-2.9,4.74-2.74,1.25.54,2-4.89,1-7.2-.55-1.26-2.65-2.13-4.67-1.93-6.12.59-6.21-3.66-.13-6.8,6.75-3.49,8.59-9.62,2.72-9.06-5,.48-5.12-.32-1.33-7.19,3.05-5.52,3-5.76-.71-5.71-4.7.06-5.26-.87-3.19-5.28s-2.48-10.17-7-8.69c-2.54.82-3.73.13-5.14-3-1.59-3.53-2.36-3.83-5.93-2.29-5.06,2.19-10.87,11.93-8.46,14.19a3.89,3.89,0,0,1,.8,4c-.58,1.4,2,8.85,6.39,18.28,8.66,18.72,9,20.93,4.07,29.68-3.93,7-20.57,21.05-25,21.06s-4.65-3.8-.6-6.19c7.47-4.39,1.38-6.84-11.09-4.44-6.34,1.22-8.18,2.05-7.57,3.44s.15,1.43-1.68.29c-1.57-1-2-2.07-1.17-3,2.26-2.47-20,3.58-23.91,6.49a24.81,24.81,0,0,1-9.3,3.64c-3.84.6-5.95,1.75-6.74,3.67-.63,1.54-2.86,3.35-4.94,4-5.79,1.87-18.44,17.83-24.36,30.73-5,10.92-5.08,11.56-1.2,11.51a17.63,17.63,0,0,1,7.52,1.88,13.54,13.54,0,0,0,8.18.9c4.63-1,10.25,2.78,6.11,4.12s-8.71,9.47-9.8,17.86l-1.15,8.84,2.53-6.13c1.39-3.37,4.1-9.38,6-13.36l3.49-7.23,20-6.68c22.14-7.41,31.63-8.2,34-2.83,1,2.16,2,2.41,4.3,1s3.32-1.12,4.49,1.46c.81,1.8,2.4,3.42,3.53,3.59s2.72,1.79,3.52,3.58,2.67,3.25,4.15,3.25,4.06,1.75,5.74,3.91c2,2.6,4.06,3.59,6.06,2.94a9.33,9.33,0,0,1,5.91.39,5.58,5.58,0,0,0,5.19-.36c1.7-1.28,2.28-1,2.27,1,0,3,3.29,6.75,4.66,5.26.49-.53,2.24-.76,3.88-.5,2.26.35,3.79,2.67,6.26,9.45,4.86,13.34,10.24,25,14.82,32q4.07,6.27,2.25,6.86c-1,.32-1,1.36,0,2.29s1.18,2.14.41,2.68-.81,3.47-.08,6.52c1.2,5,1.7,5.43,5,4.36a19.51,19.51,0,0,0,6.34-3.76c1.91-1.84,3.5-2.34,5.56-1.76,2.25.63,2.76-.13,2.28-3.42a11.79,11.79,0,0,1,1.78-7.51c2-2.7,1.62-5.19-2-14.21-4.41-11-4.33-15.38.27-14.66,1.61.25,2.94,2.37,3.86,6.12.77,3.16,2,5.56,2.68,5.34a45.36,45.36,0,0,1,5.71-.79c2.91-.26,3.82-.79,2.66-1.53s-.46-1.25,1.68-1.46c2.86-.27,3-.89,1-3.67-3.58-4.89.53-5.38,11.19-1.34,9.58,3.63,12.72,3.33,5.84-.56a15.14,15.14,0,0,1-5.59-5.6c-2.53-5.62,3.49-4.53,13.15,2.38a98.28,98.28,0,0,0,16,9.3c3.87,1.57,16.08,7.66,27.14,13.52,27.76,14.72,26.75,14.32,33.52,13.35l6.06-.86L517.34,680c-4.43-2.55-9.37-5.16-11-5.8a40.81,40.81,0,0,1-7.15-4.33,49.6,49.6,0,0,0-9-5.13,41.54,41.54,0,0,1-6.22-3,2.41,2.41,0,0,0-2.54-.33c-.6.41-1.54-.22-2.07-1.41s-5.92-5-12-8.52-12.4-7.38-14.14-8.65c-2.85-2.08-2.74-2.37,1.12-3,2.76-.42,8.53,1.73,16.26,6.06,6.59,3.69,12.89,6.9,14,7.13a7,7,0,0,1,3.6,2.78,9.79,9.79,0,0,0,5.29,3.21c2,.46,3.17,1,2.49,1.24s2.5,2.38,7.06,4.8,14,7.65,20.92,11.61l12.63,7.2,11.62-3.76c9.65-3.12,11.3-4.06,9.71-5.54ZM234.56,607.88c-3.59-4.31-2.87-7.23,2.61-10.58,6.1-3.73,9.73-3,12.13,2.31C252.45,606.6,239.53,613.85,234.56,607.88Zm341.95,58.7a3.41,3.41,0,0,1-3.07-1.72c-.45-1-5-3-10.15-4.47-15.66-4.47-37.58-12.43-37-13.44.28-.53-3.54-2.26-8.5-3.85s-8.65-3-8.21-3.16c1.08-.35-30.84-15.82-35.24-17.08-2.56-.73-2.7-.92-.52-.71,1.62.15-.67-1.1-5.09-2.8-7.93-3-12-3.18-5.66-.19a13.4,13.4,0,0,1,4.69,3.67c.78,1.17,3.09,2.51,5.14,3s3.18,1,2.52,1.23c-1.4.45,18,10.56,39.84,20.8s58.6,22.39,61.35,20.32c1.46-1.1,1.44-1.63-.05-1.57ZM529,639.08a4.86,4.86,0,0,1,3.32,2.47c1.1,2.45,24.54,11.09,40.7,15,6.19,1.5,11.06,3.53,10.83,4.52s.2,1.12,1.06.18,1.89-.71,2.5.64,1.62,1.59,2.36.79c.91-1,.36-2-1.74-3.12h0c-1.7-.91-12.76-5.36-24.58-9.88s-35.19-13.5-51.94-19.95c-18-6.93-26.15-9.52-19.93-6.34,5.79,3,11.82,5.55,13.39,5.75s2.71,1,2.52,1.85,2.34,2.18,5.63,3,6,2,6,2.59.95.78,2.11.44a1.81,1.81,0,0,1,2.45,1.05c.18.92,2,2.1,3.95,2.64M356,733.91a82.91,82.91,0,0,0,7.34-8.64,106.13,106.13,0,0,1,11.28-12.12c3.92-3.58,6.71-7.41,6.21-8.52-1.33-3-3.43-1.77-10.16,5.76-3.31,3.71-7,7.06-8.2,7.44s-1.9,1.33-1.55,2.1a1,1,0,0,1-.73,1.57C356,722.07,344.7,735,346,737.83,346.73,739.55,352.35,737.34,356,733.91ZM317.7,707.53c1.82-3.37,1.76-9.18-.1-9.87-.7-.26-1-2.69-.57-5.41l.7-4.94L331,684.06c11.15-2.74,23.34-4.28,41.48-5.23,2.49-.13,2-.59-1.92-1.81-2.89-.9-4.68-1.82-4-2s-.5-1.17-2.68-2.09c-3-1.28-7.49-.77-18.94,2.16a201.56,201.56,0,0,1-27.44,4.86c-7.27.6-12.2,1.6-11.83,2.42s-2.92,2.22-8.47,3.5c-9,2.07-5.9,2.29,7,.5,5.84-.81,9.41,1.8,8.37,6.13-.4,1.66-.16,5.62.54,8.8s.87,6.8.39,8.06c-1.27,3.32,2.27,1.83,4.21-1.77ZM460.91,552.72c-2.12-1-3.64-1.4-3.39-.84s-1.73.28-4.39-.61-5.34-1.1-5.94-.44a1,1,0,0,1-1.79-.37c-.39-.86-1.28-.93-2-.16s-1.58.74-1.95-.07-1.79-1.11-3.17-.67-2.81.15-3.17-.67-1.24-.85-1.95-.07-1.6.7-2-.16-1.28-.93-2-.16a1.14,1.14,0,0,1-2-.25c-.52-1.15-2.65-.73-6.93,1.35-3.56,1.73-6.89,2.56-7.85,1.94-2.43-1.55-4.95-.35-3.94,1.88.48,1.06,4.25,2.75,8.39,3.76s7.38,1.52,7.21,1.13,2.35.19,5.6,1.27,6.42,1.42,7,.75a1,1,0,0,1,1.77.22c.72,1.6,28.22,7,31,6.07a3.19,3.19,0,0,1,2.87.47c.61.57,8.1,2.23,16.65,3.69s16.3,3.09,17.23,3.64,7.4.78,14.4.51c12.4-.47,18.71-2.66,18.54-6.44h0c0-.9-4.44-3.59-9.77-6s-9.9-4.79-10.15-5.35,1.66-2.4,4.26-4.08,4.67-3.84,4.61-4.81-7.53-4.61-16.6-8.1L495,533.84l2.78-3.77c1.53-2.07,3.71-4.09,4.85-4.48s1.81-1.28,1.5-2c-.92-2-18.76-6.84-21.8-5.86-1.52.49-12.52.82-24.44.74s-22.19.4-22.81,1.08a1,1,0,0,1-1.83-.33,1.05,1.05,0,0,0-1.88-.28,2,2,0,0,1-2.81-.19c-1.24-1.12-1.83-.83-2.44,1.18-.44,1.46-1.27,2.63-1.85,2.59s-.84.41-.58,1a1.51,1.51,0,0,0,1.75.7,42.84,42.84,0,0,1,7.8.32c3.59.36,6.31.17,6.06-.43s.41-.57,1.47.08c2.79,1.68,26.16,3.37,26.93,1.94.36-.66,1-.43,1.42.51s1.3,1.13,1.94.43a1.65,1.65,0,0,1,2.24-.35c.58.51,4.42,1.44,8.53,2.06s8.37,2.19,9.47,3.49c1.73,2,1.33,2.4-2.89,2.66-11.42.69-17.29.41-17.85-.84-.33-.74-1.13-.76-1.78-.06a1.62,1.62,0,0,1-2.29.23c-1.32-1.25-34-4-33.51-2.85.2.45-1.27.2-3.27-.54s-4.16-.77-4.81-.06-1.53.52-1.95-.42-1.08-1.14-1.46-.44-2.23.88-4.13.4.65.91,5.64,3.09,9.29,5.1,9.55,6.5c.35,1.88,7.56,3.41,27.87,5.92,15.07,1.86,28,2.78,28.74,2s1-.65.6.21c-.75,1.59,13.53,5,21.44,5.09,4.52.06,7.14,3.09,4.84,5.6-.73.8-8,.38-16.21-.92s-15.36-2.1-16-1.76-2.86-.25-5-1.3-3-1.13-1.93-.17q2,1.74-1.44.09c-1.91-.91-3.77-1.08-4.15-.39s-1.06.42-1.52-.6-1.14-1.29-1.52-.6-2.24.52-4.15-.39m5.09,21.76c-1.78-.84-11.7-3.13-22.06-5.1s-22.66-4.49-27.35-5.61c-8.09-1.94-8.72-1.86-12.39,1.57-2.12,2-5.07,3.62-6.55,3.62-5.11,0-2.1,1.28,6.71,2.82A86.59,86.59,0,0,1,417.69,574c.68.33,7.94,2.38,16.15,4.55,17,4.49,34.26,7.26,39.47,6.33a11.29,11.29,0,0,1,5.55.31c1.3.61,2,.24,2.07-1.07a2.87,2.87,0,0,1,1.69-2.54c.9-.29,1.46.2,1.25,1.08-.33,1.39,1.83,1.28,11.3-.59a4.15,4.15,0,0,0,2.57-1.61h0c1.32-2.45-2.38-3.13-4-.73-1.31,1.93-1.65,2-1.66.21,0-1.95-12.34-5.42-15.56-4.38-.6.19-2.67-.4-4.59-1.31m-66.12,3.44c-4.17-1.23-8.46-2-9.52-1.68a4.43,4.43,0,0,1-3.74-1.13c-1.1-1-3-1-4.91.18s-3.41,1.19-3.81.31a2.2,2.2,0,0,0-2.76-.82c-3.07,1.09,13.89,6,23.2,6.68,10.47.79,11.13-.7,1.54-3.53ZM228.54,622.9l6.29-5.57-6.8,1.42c-6.7,1.4-12.36,6.39-9.39,8.29a1,1,0,0,1,0,1.77c-.69.52-1.06,2.68-.83,4.8l.42,3.86,2-4.49c1.09-2.47,4.81-7,8.27-10.06Zm152-57.47c-8.2-6-11.58-7.22-13-4.57-.73,1.34-3.39,3.09-5.91,3.91s-4.74,2.17-4.94,3c-.45,1.9,5.22,3.65,6.16,1.9.38-.7,1-.56,1.4.31s1.69.85,2.88,0a6.35,6.35,0,0,1,4.87-.88,21.17,21.17,0,0,0,7.17,0c2.46-.39,4.71-.69,5-.67s-1.32-1.33-3.6-3Zm22-5.92a3.31,3.31,0,0,0-1.68-3,12.34,12.34,0,0,1-3.08-2.79c-2.44-3.63-10.31-7-12.51-5.32a64.6,64.6,0,0,1-6.76,4.11c-4.18,2.22-4.21,2.44-.56,3.26,2.16.49,3.36,1.06,2.67,1.29s.54,1.41,2.72,2.65C390.39,563.63,401.63,563.54,402.57,559.51ZM420.71,541c2.35-1-1.28-3.39-4.22-2.83-4.41.84-15.92-2.28-15.48-4.19.24-1-.26-1-1.25.09s-3.19,1-5.91-.41c-4.35-2.27-4.7-2.12-11.15,4.75-1.09,1.16,7.12,6.08,9.08,5.45a8.43,8.43,0,0,1,5,.77c3.69,1.74,13.12,1.06,18.54-1.32,2.2-1,4.6-2,5.34-2.3Zm-48.3,7.25q-1.95-1.24,1.18-1.25c3.77,0,4.58-2.29,1.75-4.94-1.9-1.78-2.24-1.66-4.14,1.44-2.25,3.68-1.45,7.48,1.39,6.56,1-.31.9-1.13-.17-1.81Zm120.2-41c.33-.61-2.63-2.16-6.57-3.44s-7.48-3-7.85-3.86c-.46-1-1.46-.78-3.07.78s-6.53,2.87-14.87,4c-6.87.94-14.47,2.15-16.91,2.67a41.78,41.78,0,0,1-7.31.92c-3.71,0-23.41,1.59-24.84,2.06-4.91,1.59,11,2.67,22.64,1.54.84-.08,14.69.44,24.34.91,14.13.69,23.77,0,28.48-2.11,3-1.31,5.65-2.88,6-3.48Zm-77.35,12.92c.92-1.52-18.1-4-20.52-2.63a12.73,12.73,0,0,1-4.67.52c-5.08-.18-5.23,1.59-.49,5.6,3.85,3.25,5.73,3.72,8.87,2.21a1.31,1.31,0,0,1,1.75.69c.66,1.46,13.64-4,15.06-6.39ZM383.14,529c.23-1-.88-2.42-2.47-3.16-3.73-1.75-8.73,2.6-6,5.18,2.16,2,7.81.67,8.44-2Zm119-39.5c-.23-.52-4-2.14-8.47-3.59s-7.86-3.45-7.63-4.44,5.89-3.56,12.58-5.73,12.44-4.45,12.78-5.09c1.17-2.17-2.92-4.49-6.1-3.46-2.2.71-3.61,0-4.63-2.24-1.27-2.82-.32-3.9,7-8,12.14-6.76,9.35-7.6-17.27-5.19-1.77.16-3.48-.28-3.79-1s-2.59.75-5.06,3.23-4.91,4.35-5.42,4.16-9.47,3.47-19.89,8.14-22.72,9.79-27.31,11.37l-8.35,2.88,7.24-.92c4-.51,20-4.59,35.64-9.07,26.42-7.58,28.48-8,29.59-5.49s-.11,3.08-10.08,6.31c-6.2,2-13.14,4.3-15.42,5.09s-12.72,3.43-23.2,5.86c-32.59,7.57-41.77,10-36.74,9.8,2.58-.11,4.83.52,5,1.39s1.57.83,3.11-.09,10.7-3,20.34-4.63,22.56-4.4,28.71-6.19,12.24-3.08,13.54-2.87c3.43.54,4.62,4.25,1.67,5.2-1.38.45-2.25,1.38-1.94,2.07.61,1.37-6.27,2.5-9.82,1.62-1.2-.3-8,.93-15,2.73-12.51,3.18-35.37,6.78-39.25,6.17-1.06-.17-2.17,1.25-2.47,3.14-.59,3.75,1,4.2,9,2.57a47.16,47.16,0,0,1,7-.89c6.55-.08,16.54-1.18,28.27-3.1,6.86-1.13,15.1-2,18.31-1.85,6,.2,28.77-6.24,28-7.93ZM335.3,531.95a39.65,39.65,0,0,1-2.09-7.7c-.1-1.38-1.69-2.93-3.53-3.45a7.8,7.8,0,0,1-4.52-3.56c-.65-1.44-2-2.35-3-2s-1.84-.52-1.83-1.89-.52-1.9-1.26-1.09c-1.6,1.74-7.82-.45-9.06-3.19-.86-1.91-6-1.57-18.6,1.21-8.65,1.91-14.93.84-16.58-2.82-1.24-2.76-2.81-3.36-7.52-2.9-4.13.4-6.33-.25-7.17-2.12s-2.47-2.36-5.16-1.61a11.86,11.86,0,0,1-7.77-1.08c-4.58-2.59-6.9-2-9.51,2.22-1.75,2.87-2.41,3.09-6.54,2.24-5.53-1.14-9,1.05-7.37,4.67.84,1.86,0,3-2.86,3.95-6.5,2.1-4.64,13.94,3.4,21.71,1.9,1.83,3.67,2.91,4,2.39s1.93-.41,3.68.24,7.83.53,13.53-.27c13.19-1.85,30.18-2.05,30.94-.37.32.71,1.53,1,2.69.61s3.61.27,5.45,1.43,4.44,1.76,5.78,1.33,2.43.15,2.42,1.61c0,1.81,1.23,2,5.07.76,2.8-.91,5.83-1.18,6.73-.6s3.25.42,5.23-.34c5.3-2,19.46-2.9,19-1.16-.19.83.71,1.46,2,1.42,4.4-.15,6.37-4.41,4.46-9.63Zm64.37-25.86a14.27,14.27,0,0,0,4.09-5c1-2.33.51-2.77-2.73-2.6a24,24,0,0,0-8.45,2.72c-2.93,1.62-4.82,2-5.26,1s-1.45-.83-3.28.93c-3.26,3.14-4.79,3.65-4.27,1.44.22-1-.66-1.38-2-1-1.47.47-1.69,1.92-.57,3.78,1,1.66,2.27,3.8,2.84,4.77s1.48,1.3,2,.75,2.71-1,4.82-1c3.72,0,6.61-1.3,12.76-5.84Zm-18-10.25c.24-1,2.08-2,4.09-2.23,3.39-.32,6.8-2.42,14.12-8.68,2-1.68,2.27-3.3.93-4.89-1.66-2-3.59-1.87-10.92.5-4.89,1.58-9.08,3.67-9.31,4.63a2.13,2.13,0,0,1-2.44,1.44c-1.11-.17-2.84,1.54-3.84,3.8-1.38,3.14-1.13,4.62,1,6.2,3.21,2.33,5.67,2,6.33-.78Zm30.14-12.29c-1.39,0-2.81.5-3.15,1.15s.79.65,2.52,0C413.1,484,413.35,483.56,411.82,483.55ZM330.12,507c-.15-.34-1-.37-1.95-.07a1.49,1.49,0,0,0-1,2c.37.81,1.24.85,1.95.07s1.16-1.68,1-2Zm104-38.24c8.88-3.25,18.33-7.15,21-8.66a34.14,34.14,0,0,1,7.92-3.36c1.69-.33,2.74-1.35,2.33-2.26q-.74-1.65,4.73-2.45c3.4-.49,4.86-1.19,3.84-1.84s-.13-1.53,1.71-2.13,4.09-.6,5,0c1.66,1.06,7.4-1.49,12.76-5.67,1.56-1.22,5.67-3.95,9.15-6.07,6.23-3.81,10.09-8.6,9-11.13-.56-1.24-9.75.76-16.56,3.6-9.15,3.82-19.82,6.65-22,5.84-3.5-1.3,1.71-9.51,8.34-13.14a52.3,52.3,0,0,0,8.63-6,21.39,21.39,0,0,1,4.24-3.33c3.53-.81,15.69-16.18,14.64-18.51-1.38-3.07-36.3,14.17-46.81,23.12-9,7.64-15.68,12.62-29.84,22.18-5.81,3.92-11.31,8-12.23,9a14.62,14.62,0,0,1-3.77,2.85c-5.17,2.46-5.93,4-3.55,7.35,1.73,2.41,1.73,3.3,0,3-1.45-.23-1.74.07-.7.73s.69,1.91-.6,2.87-1.7,2-.92,2.29,2.21-.63,3.16-2a6.37,6.37,0,0,1,4.63-2.57c1.59,0,2.59-.68,2.22-1.51s.58-1.5,2.12-1.51c3.89,0,19.75-9.74,22.08-13.55,1.06-1.73,3.14-3.14,4.62-3.15s4.29-1.5,6.23-3.32,3.69-3,3.88-2.53,1-.2,1.83-1.39a4.59,4.59,0,0,1,4.18-1.76,3.73,3.73,0,0,1,.9,7.14,30.21,30.21,0,0,0-5.22,3.28,38.37,38.37,0,0,1-3.85,2.8C451.86,450,432.3,462.15,428,465a102.42,102.42,0,0,1-16,8.79c-1.68.75-3,2.18-3,3.2.05,1.21,1.6,1.11,4.5-.27,2.43-1.16,11.69-4.77,20.57-8ZM319.23,500.86c-2.19-.81-4.41,2.37-2.51,3.59,1.13.72,2.06.4,2.81-1,.61-1.14.48-2.31-.3-2.6Zm70.56-27.17c7.92-3.06,12.12-6.45,14.15-11.44,1.2-3,.6-2.87-9,1.22-5.65,2.41-11,5.38-11.78,6.6a4.24,4.24,0,0,1-3.65,1.89c-1.18-.18-1.85.32-1.49,1.12s-.7,1.79-2.36,2.2c-6.33,1.55-8.63,3.15-7.66,5.31.83,1.84,2.21,1.67,7.72-.92,3.69-1.73,10-4.43,14.05-6Zm-82.34,25.58c1-1.15,1.1-2.38.16-2.73s-2.51.84-3.48,2.63c-1.89,3.5.21,3.56,3.31.09Zm-11-.39c0-1.26-1.58-2.72-3.54-3.25-2.19-.59-2.82-.48-1.63.3a1.78,1.78,0,0,1,.6,2.71c-1.43,1.56.87,3.71,3.16,3,.77-.25,1.4-1.48,1.41-2.74Zm-13.25,0c-.67-.43-.62-1.41.09-2.2s.57-3.06-.33-5.06c-1.63-3.62-3.18-3.24-2.46.61a35.93,35.93,0,0,1,.23,6.06c-.17,4.42,2.29,7.26,3.15,3.62.29-1.24,0-2.61-.68-3Zm41.45-14.07c0-1.43-.52-1.89-1.25-1.1a2.8,2.8,0,0,0-.68,2.7C323.67,488.37,324.66,487.54,324.69,484.77Zm51.79-18.92c6.7-3.85,12.87-8,13.71-9.15,8-11.3,9.31-14.4,6.47-14.91-4.38-.78-15.09,7.38-20.08,15.29a63.11,63.11,0,0,1-8.52,9.78c-5.1,4.77-6.66,6.93-4.5,6.23.4-.13,6.22-3.38,12.92-7.23Zm-54.57,8.72c1.78-3.21,3-4.75,2.69-3.42-.37,1.66-.07,1.9,1,.78.83-.9.83-2.07,0-2.6s.79-2.78,3.59-5c6-4.81,4-7-4.05-4.36-4.88,1.58-6.42,3.57-3.85,5,.35.2-1,2.87-3.08,5.93s-2.92,6.08-2,6.7.82,1-.34.8c-2-.31-4.37,3.41-5.35,8.46-.69,3.56,7.47-5.27,11.37-12.29ZM272.25,488.9c-.86-4.62-2.17-8.63-2.92-8.91-2.54-.95-2.66,1.93-.3,7.62,1.3,3.13,1.78,5.88,1.08,6.1s-.86,1.36-.34,2.51C272.06,501.31,273.68,496.54,272.25,488.9Zm34.34-28.54c-2.46-1.2-3.64-1.23-3.16-.07s-.25,5.32-1.5,9.56-2,8.31-1.67,9-.36,2.07-1.54,3c-2.69,2-1,6.14,2.07,5.14,1.26-.41,4.13-4.55,6.38-9.22h0c2.25-4.66,3.85-9,3.55-9.66s.92-2.59,2.69-4.3c5.77-5.56,2.34-11.86-4.11-7.55m-8.68,27.68a1.49,1.49,0,0,1,1-2c.92-.3,1.8-.26,1.95.07s-.3,1.25-1,2S301,484.76,300.62,483.94Zm60.52-19.87c6.79-6.26,14.34-17.85,15.32-23.53,1.13-6.52-1-6.24-7.84,1-1.43,1.52-6.54,6.74-11.36,11.6-6.34,6.38-8.31,9.45-7.11,11.08a41.76,41.76,0,0,1,2.57,4c1.21,2.26,1.77,2,8.41-4.13Zm63.44-27.31c10.11-7.13,23.49-17.2,29.75-22.4s12.32-9.75,13.48-10.12c6.14-2,29.73-26.16,32.92-33.74,1.84-4.35.42-9-2.47-8-5.11,1.65-32.37,20.48-37.71,26-1.79,1.87-10.34,9.67-19,17.35s-16.72,15.44-17.92,17.26-2,2.42-1.79,1.33-2,.18-5,2.82-6.2,5.06-7.16,5.37a1.53,1.53,0,0,0-1.09,2c.37.81-.38,1.31-1.66,1.11s-1.66.28-.62,1.3.81,4.29-.3,7.51-1.52,5.68-.91,5.49,9.36-6.18,19.47-13.31Zm-163.3,51.42c-2-7.43-4.8-12.43-6.57-11.85s-.63,7.66,1.49,9c1,.62,1,1.38,0,1.69-1.93.62.22,6.73,2.69,7.65,3.37,1.25,4-.55,2.41-6.5Zm13.54-14.89c-.78.55-.44,1.61.77,2.37,1.53,1,3.08-2,5.2-10.07,1.93-7.32,4.15-11.82,6.13-12.46,2.64-.85,3.1-.39,3.08,3.11a37.84,37.84,0,0,1-2.14,10c-1.16,3.25-1.43,6.16-.59,6.47s.64.85-.43,1.2a1.85,1.85,0,0,0-1.06,2.61,2.61,2.61,0,0,1-.77,3.11c-1,.69-.65,2.2.91,3.85,3.41,3.6,4.19,2.45,8.16-11.95h0c1.86-6.73,4.36-12.56,5.56-12.95,2.18-.7,1.73-7.72-.55-8.57-.66-.25-3,.13-5.15.83-5.2,1.68-7-.35-7.22-8-.15-5.71-.48-6.33-3.32-6.28-4.68.09-7.42,4-8,11.41A138.9,138.9,0,0,1,273,463.47c-1.1,5-1.09,8.29,0,7.46m-56,33.64c-.29-3.13-4.52-10.35-7-11.92a3.06,3.06,0,0,1-1.57-2.76c.2-.84-1.52-3.34-3.81-5.56l-4.17-4,2.68,8.72c5.32,17.28,7.22,20.66,10.82,19.22C215.71,507.53,217.08,505.88,217,504.57Zm31.56-17.85c-1.18-2.91-2.6-6.78-3.17-8.6-1.38-4.42-4.64-4.75-3.82-.39,1.69,9,3.36,14.08,4.79,14.61,3.49,1.3,4.23-.6,2.2-5.62Zm-22.72,5.35a5.34,5.34,0,0,0-3.35-3c-1.19-.19-2.76-2.06-3.5-4.16-2.38-6.84-5.25-11.33-6.9-10.8s5.33,15.18,7.82,16.11c.84.31,2.21,2.07,3,3.91s2.07,2.72,2.78,1.93.75-2.58.1-4Zm8.05-11.39c-3-7-7.07-10.1-6.45-4.84.58,5,5.77,16.26,7.84,17,2.26.84,1.57-5.16-1.39-12.19Zm203-93.9c-.25-.53-10.46,7-22.67,16.69s-24.54,19.5-27.4,21.76c-4.37,3.45-4.85,4.66-3,7.59,3.52,5.65,4.07,6.18,4.13,4,0-1.39,2-2.36,5.91-3h0c4.67-.73,9.47-3.9,23.83-15.78,9.89-8.18,22.29-19.08,27.55-24.22s10.7-9.71,12.07-10.16c3-1,13.62-19.09,12.59-21.4-.4-.88-2.21-1.12-4-.53M209.08,463.44c.28.63,2.46,1.45,4.83,1.83,4.09.66,4.16.49,1.4-3-4.65-6-11.69-20.59-10.52-21.87.59-.64,2.7-1.25,4.7-1.35,3.2-.17,4.19,1.09,8.33,10.59,5.8,13.32,7.44,16.15,8.37,14.43.4-.74-.75-5.58-2.55-10.76-2.69-7.73-2.77-9.79-.4-11.52,2.73-2,3.11-1.56,7.39,8.62,2.48,5.9,4.74,12.22,5,14.06.38,2.46,1.05,2.93,2.56,1.8,2-1.47,1.45-4.93-1.46-10-.74-1.3-.6-2.6.31-2.89s.8-2.42-.23-4.72c-1.44-3.21-1.13-4.43,1.35-5.23,3.9-1.26,7.92,2.53,7.18,6.76-.29,1.69.43,6.94,1.6,11.68,1.75,7,2.38,8.15,3.46,6.07,1.62-3.11,1.79-19.82.19-18.07-.63.69-1.14.13-1.12-1.23,0-3.19,7.69-5.79,8.94-3,.5,1.12.85,5.68.76,10.14s.4,7.93,1.08,7.72.58.37-.23,1.28-.34,3.2,1.17,5.26,2.69,3.38,2.76,3.1.66-2.74,1.32-5.48h0c.81-3.33.6-4.42-.62-3.28-1,.94-1,.48,0-1s2.39-6.85,3-11.88,1.57-9.64,2-10.23c1.53-1.91.56-11.38-1.36-13.17-1.56-1.46-2.42-1-5.29,2.55q-7.31,9.16-10.51,2.19c-3.21-7-6.1-7.21-7.51-.49-.85,4-2.52,6.53-4.92,7.3-3.43,1.11-3.78.7-6.24-7.18-3.16-10.14-7.33-13.84-7.51-6.66-.2,8.43-.67,9.71-4.11,11.34-2.85,1.35-3.76.88-5.73-2.94a53,53,0,0,0-3.35-5.82,34.38,34.38,0,0,1-2.2-3.28c-1.82-3.1-2.66,2.77-1.06,7.47,1.06,3.13.53,3.94-3.13,4.73-2.43.52-4.78.35-5.22-.38s-2.32-3.21-4.16-5.5c-3.63-4.51-5.15-4-3.35,1.15a29.22,29.22,0,0,1,1.29,4.76c.34,3.25,6,13.38,6.93,12.38.53-.58,2.05,1.58,3.38,4.8s3.66,6.49,5.18,7.26m-7.95,12c-.65-.42-.6-1.4.11-2.18s-.39-5.19-2.46-9.79c-2.35-5.22-4.25-7.84-5-7s-1.92,0-2.7-1.75-1.77-2.43-2.29-1.35,1,7,3.31,13.28c3.79,10.42,4.47,11.39,7.22,10.5C202.8,474.85,203.63,474.07,203,473.65Zm-11.16-27.31a2.38,2.38,0,0,0-2.61-1.55c-.92.3-1.25,1.48-.73,2.63a2.38,2.38,0,0,0,2.61,1.55c.92-.3,1.25-1.48.73-2.63Zm.76-6.81c-.14-.3-1.37-.18-2.75.26s-2.23,1.42-1.9,2.16,1.57.62,2.75-.26,2-1.86,1.9-2.16Z" transform="translate(-7.74 -291)"/></g></svg>